<svg width="21" height="19" viewBox="0 0 21 19" fill="none" xmlns="http://www.w3.org/2000/svg">
<path id="Vector" fill-rule="evenodd" clip-rule="evenodd" d="M7.74225 1.08992C9.22725 -0.363307 11.7728 -0.363307 13.2578 1.08992L20.0078 7.69539C20.646 8.31956 21 9.1378 21 9.98647V16.9713C21 18.0918 19.9928 19 18.75 19H2.25C1.00725 19 0 18.0918 0 16.9713V9.98647C0 9.1378 0.353999 8.31956 0.992249 7.69539L7.74225 1.08992ZM8.25 17.6475H12.75V11.5614H8.25V17.6475ZM6.75 17.6475H2.25C1.836 17.6475 1.5 17.3446 1.5 16.9713V9.98647C1.5 9.47727 1.71225 8.98631 2.0955 8.61168L8.8455 2.00621C9.7365 1.13454 11.2635 1.13454 12.1545 2.00621L18.9045 8.61168C19.2877 8.98631 19.5 9.47727 19.5 9.98647V16.9713C19.5 17.3446 19.164 17.6475 18.75 17.6475H14.25V11.5614C14.25 10.8142 13.5787 10.2089 12.75 10.2089H8.25C7.42125 10.2089 6.75 10.8142 6.75 11.5614V17.6475Z" fill="white"/>
</svg>
