<svg width="21" height="21" viewBox="0 0 21 21" fill="none" xmlns="http://www.w3.org/2000/svg">
<path fill-rule="evenodd" clip-rule="evenodd" d="M10.5 0C4.70101 0 0 4.70101 0 10.5C0 16.299 4.70101 21 10.5 21C16.299 21 21 16.299 21 10.5C21 4.70101 16.299 0 10.5 0ZM8.19143 4.93383C8.78877 4.90665 8.97964 4.9 10.5005 4.9H10.4988C12.0201 4.9 12.2103 4.90665 12.8076 4.93383C13.4038 4.96113 13.811 5.05552 14.168 5.194C14.5367 5.33692 14.8482 5.52826 15.1597 5.83976C15.4712 6.15103 15.6625 6.46347 15.806 6.83179C15.9437 7.18786 16.0382 7.5948 16.0662 8.19097C16.093 8.78831 16.1 8.97918 16.1 10.5001C16.1 12.0209 16.093 12.2113 16.0662 12.8087C16.0382 13.4046 15.9437 13.8117 15.806 14.1679C15.6625 14.5361 15.4712 14.8485 15.1597 15.1598C14.8485 15.4713 14.5365 15.6631 14.1683 15.8061C13.812 15.9446 13.4046 16.039 12.8084 16.0663C12.2111 16.0935 12.0208 16.1001 10.4998 16.1001C8.97906 16.1001 8.78831 16.0935 8.19097 16.0663C7.59491 16.039 7.18786 15.9446 6.83155 15.8061C6.46347 15.6631 6.15103 15.4713 5.83988 15.1598C5.52849 14.8485 5.33715 14.5361 5.194 14.1677C5.05563 13.8117 4.96125 13.4047 4.93383 12.8086C4.90677 12.2112 4.9 12.0209 4.9 10.5001C4.9 8.97918 4.907 8.78819 4.93372 8.19085C4.96055 7.59491 5.05505 7.18786 5.19389 6.83167C5.33739 6.46347 5.52872 6.15103 5.84023 5.83976C6.1515 5.52837 6.46393 5.33704 6.83225 5.194C7.18832 5.05552 7.59526 4.96113 8.19143 4.93383Z" fill="white"/>
<path fill-rule="evenodd" clip-rule="evenodd" d="M9.99818 5.90918C10.0957 5.90902 10.2007 5.90907 10.3139 5.90912L10.5005 5.90918C11.9958 5.90918 12.173 5.91454 12.7634 5.94138C13.3094 5.96634 13.6058 6.05758 13.8032 6.13423C14.0645 6.23573 14.2508 6.35706 14.4467 6.55307C14.6427 6.74907 14.7641 6.93574 14.8658 7.19707C14.9424 7.39424 15.0338 7.69058 15.0586 8.23658C15.0855 8.82692 15.0913 9.00426 15.0913 10.4988C15.0913 11.9933 15.0855 12.1706 15.0586 12.761C15.0337 13.307 14.9424 13.6033 14.8658 13.8005C14.7643 14.0618 14.6427 14.2479 14.4467 14.4438C14.2507 14.6398 14.0646 14.7611 13.8032 14.8626C13.606 14.9396 13.3094 15.0306 12.7634 15.0556C12.1731 15.0824 11.9958 15.0883 10.5005 15.0883C9.00522 15.0883 8.828 15.0824 8.23766 15.0556C7.69165 15.0304 7.39532 14.9392 7.1978 14.8625C6.93646 14.761 6.74979 14.6397 6.55379 14.4437C6.35779 14.2477 6.23645 14.0615 6.13472 13.8C6.05807 13.6028 5.96672 13.3065 5.94187 12.7605C5.91503 12.1702 5.90967 11.9928 5.90967 10.4974C5.90967 9.00192 5.91503 8.82552 5.94187 8.23518C5.96684 7.68918 6.05807 7.39284 6.13472 7.19544C6.23622 6.9341 6.35779 6.74743 6.55379 6.55143C6.74979 6.35543 6.93646 6.2341 7.1978 6.13236C7.3952 6.05536 7.69165 5.96436 8.23766 5.93928C8.75426 5.91594 8.95447 5.90894 9.99818 5.90778V5.90918ZM13.4898 6.83902C13.1188 6.83902 12.8178 7.13967 12.8178 7.51079C12.8178 7.8818 13.1188 8.1828 13.4898 8.1828C13.8608 8.1828 14.1618 7.8818 14.1618 7.51079C14.1618 7.13979 13.8608 6.83879 13.4898 6.83879V6.83902ZM7.62469 10.5001C7.62469 8.9119 8.91228 7.62426 10.5004 7.62419C12.0886 7.62419 13.3759 8.91186 13.3759 10.5001C13.3759 12.0883 12.0887 13.3753 10.5005 13.3753C8.91235 13.3753 7.62469 12.0883 7.62469 10.5001Z" fill="white"/>
<path d="M10.5005 8.63337C11.5314 8.63337 12.3672 9.46906 12.3672 10.5001C12.3672 11.5309 11.5314 12.3667 10.5005 12.3667C9.46948 12.3667 8.63379 11.5309 8.63379 10.5001C8.63379 9.46906 9.46948 8.63337 10.5005 8.63337V8.63337Z" fill="white"/>
</svg>
