<svg width="21" height="19" viewBox="0 0 21 19" fill="none" xmlns="http://www.w3.org/2000/svg">
<path id="Vector" fill-rule="evenodd" clip-rule="evenodd" d="M12.6632 1.35714C12.4348 1.35714 12.2236 1.46706 12.109 1.64553L12.1038 1.65298L7.48906 8.43195V17.6429H16.3119C16.6129 17.6429 16.8735 17.4535 16.9387 17.1875L16.9409 17.1767L19.4879 8.1639C19.5703 7.80358 19.267 7.46429 18.8596 7.46429H14.9781C14.3812 7.46429 13.7896 7.2831 13.3649 6.90785C12.9223 6.51632 12.7149 5.9565 12.8482 5.34375L13.5664 2.05133C13.645 1.69169 13.341 1.35714 12.9365 1.35714H12.6632ZM5.99126 17.6429V8.91847H2.20332C1.85058 8.91847 1.56451 9.17633 1.56151 9.49594L1.49786 17.0566C1.49487 17.3796 1.78319 17.6429 2.13967 17.6429H5.99126ZM6.32229 7.56132L10.8202 0.954075C11.2051 0.36304 11.9053 0 12.6632 0H12.9365C14.2846 0 15.2971 1.11626 15.0357 2.31461L14.3183 5.60637C14.2816 5.77262 14.3332 5.8683 14.4111 5.93684C14.5077 6.02234 14.6987 6.10714 14.9781 6.10714H18.8596C20.2286 6.10714 21.2448 7.25596 20.9483 8.46653L20.9453 8.47738L18.3975 17.4936C18.1751 18.3744 17.3101 19 16.3119 19H2.13967C0.95191 19 -0.00892427 18.1233 6.25309e-05 17.0464L0.0637126 9.48509C0.0726994 8.42041 1.02829 7.56132 2.20332 7.56132H6.32229Z" fill="white"/>
</svg>
