<svg width="144" height="135" viewBox="0 0 144 135" fill="none" xmlns="http://www.w3.org/2000/svg">
<path d="M86.2045 61.8755C95.1482 61.8755 102.314 54.338 102.314 45.0005C102.314 35.663 95.1482 28.1255 86.2045 28.1255C77.2608 28.1255 70.0412 35.663 70.0412 45.0005C70.0412 54.338 77.2608 61.8755 86.2045 61.8755ZM43.1025 61.8755C52.0461 61.8755 59.2119 54.338 59.2119 45.0005C59.2119 35.663 52.0461 28.1255 43.1025 28.1255C34.1588 28.1255 26.9392 35.663 26.9392 45.0005C26.9392 54.338 34.1588 61.8755 43.1025 61.8755ZM43.1025 73.1255C30.549 73.1255 5.38818 79.7068 5.38818 92.813V106.876H80.8167V92.813C80.8167 79.7068 55.6559 73.1255 43.1025 73.1255ZM86.2045 73.1255C84.6421 73.1255 82.8641 73.238 80.9784 73.4068C87.2282 78.1318 91.5923 84.488 91.5923 92.813V106.876H123.919V92.813C123.919 79.7068 98.758 73.1255 86.2045 73.1255Z" fill="white"/>
</svg>
