<svg width="141" height="137" viewBox="0 0 141 137" fill="none" xmlns="http://www.w3.org/2000/svg">
<g clip-path="url(#clip0_436_78)">
<path d="M91.0625 62.7917C95.9388 62.7917 99.875 58.9671 99.875 54.2292C99.875 49.4913 95.9388 45.6667 91.0625 45.6667C86.1862 45.6667 82.25 49.4913 82.25 54.2292C82.25 58.9671 86.1862 62.7917 91.0625 62.7917ZM49.9375 62.7917C54.8138 62.7917 58.75 58.9671 58.75 54.2292C58.75 49.4913 54.8138 45.6667 49.9375 45.6667C45.0612 45.6667 41.125 49.4913 41.125 54.2292C41.125 58.9671 45.0612 62.7917 49.9375 62.7917ZM70.4412 11.4167C38.0112 11.4167 11.75 36.99 11.75 68.5C11.75 100.01 38.0112 125.583 70.4412 125.583C102.93 125.583 129.25 100.01 129.25 68.5C129.25 36.99 102.93 11.4167 70.4412 11.4167ZM70.5 114.167C44.5325 114.167 23.5 93.7308 23.5 68.5C23.5 43.2692 44.5325 22.8333 70.5 22.8333C96.4675 22.8333 117.5 43.2692 117.5 68.5C117.5 93.7308 96.4675 114.167 70.5 114.167ZM70.5 91.3333C61.8344 91.3333 54.3438 86.7096 50.2606 79.9167H40.42C45.12 91.5902 56.8112 99.8958 70.5 99.8958C84.1888 99.8958 95.88 91.5902 100.58 79.9167H90.7394C86.6562 86.7096 79.1656 91.3333 70.5 91.3333Z" fill="white"/>
</g>
<defs>
<clipPath id="clip0_436_78">
<rect width="141" height="137" fill="white"/>
</clipPath>
</defs>
</svg>
