<svg width="21" height="21" viewBox="0 0 21 21" fill="none" xmlns="http://www.w3.org/2000/svg">
<path fill-rule="evenodd" clip-rule="evenodd" d="M10.5 0C4.70101 0 0 4.70101 0 10.5C0 16.299 4.70101 21 10.5 21C16.299 21 21 16.299 21 10.5C21 4.70101 16.299 0 10.5 0ZM14.8757 6.89033C15.3576 7.02257 15.7371 7.41222 15.8659 7.90703C16.1 8.80383 16.1 10.675 16.1 10.675C16.1 10.675 16.1 12.5461 15.8659 13.443C15.7371 13.9378 15.3576 14.3274 14.8757 14.4597C14.0024 14.7 10.5 14.7 10.5 14.7C10.5 14.7 6.99765 14.7 6.12424 14.4597C5.64232 14.3274 5.26279 13.9378 5.13399 13.443C4.9 12.5461 4.9 10.675 4.9 10.675C4.9 10.675 4.9 8.80383 5.13399 7.90703C5.26279 7.41222 5.64232 7.02257 6.12424 6.89033C6.99765 6.65 10.5 6.65 10.5 6.65C10.5 6.65 14.0024 6.65 14.8757 6.89033Z" fill="white"/>
<path d="M9.4502 12.6V9.1L12.2502 10.8501L9.4502 12.6Z" fill="white"/>
</svg>
