<svg width="71" height="58" viewBox="0 0 71 58" fill="none" xmlns="http://www.w3.org/2000/svg">
<path d="M70.4142 16.4142C71.1953 15.6332 71.1953 14.3668 70.4142 13.5858L57.6863 0.857864C56.9052 0.0768156 55.6389 0.0768156 54.8579 0.857864C54.0768 1.63891 54.0768 2.90524 54.8579 3.68629L66.1716 15L54.8579 26.3137C54.0768 27.0948 54.0768 28.3611 54.8579 29.1421C55.6389 29.9232 56.9052 29.9232 57.6863 29.1421L70.4142 16.4142ZM2 17L69 17L69 13L2 13L2 17Z" fill="black"/>
<path d="M0.600677 41.5853C-0.180367 42.3663 -0.180367 43.6327 0.600677 44.4137L13.3286 57.1416C14.1096 57.9227 15.376 57.9227 16.157 57.1416C16.9381 56.3606 16.9381 55.0943 16.157 54.3132L4.84332 42.9995L16.157 31.6858C16.9381 30.9048 16.9381 29.6384 16.157 28.8574C15.376 28.0763 14.1096 28.0763 13.3286 28.8574L0.600677 41.5853ZM69.0149 40.9995H2.01489V44.9995H69.0149V40.9995Z" fill="black"/>
</svg>
