<svg width="20" height="24" viewBox="0 0 20 24" fill="none" xmlns="http://www.w3.org/2000/svg">
<path d="M12.4136 0H2.99963C2.20398 0 1.44092 0.31607 0.878314 0.87868C0.315704 1.44129 -0.000366211 2.20435 -0.000366211 3V24H19.9996V7.586L12.4136 0ZM12.9996 3.414L16.5856 7H12.9996V3.414ZM1.99963 22V3C1.99963 2.73478 2.10499 2.48043 2.29253 2.29289C2.48006 2.10536 2.73442 2 2.99963 2H10.9996V9H17.9996V22H1.99963ZM10.9996 14H13.9996V16H10.9996V19H8.99963V16H5.99963V14H8.99963V11H10.9996V14Z" fill="white"/>
</svg>
