<svg width="21" height="19" viewBox="0 0 21 19" fill="none" xmlns="http://www.w3.org/2000/svg">
<path id="Vector" fill-rule="evenodd" clip-rule="evenodd" d="M12 0C13.815 0 15.33 1.16579 15.675 2.71429H17.25C19.32 2.71429 21 4.23361 21 6.10714V15.6071C21 17.48 19.32 19 17.25 19H3.75C1.68 19 0 17.48 0 15.6071V6.10714C0 4.23361 1.68 2.71429 3.75 2.71429H5.32498C5.66998 1.16579 7.185 0 9 0H12ZM12 1.35714C12.9825 1.35714 13.815 1.92375 14.1225 2.71429H6.87753C7.18503 1.92375 8.0175 1.35714 9 1.35714H12ZM19.5 6.10714C19.5 4.98275 18.495 4.07143 17.25 4.07143H3.75C2.505 4.07143 1.5 4.98275 1.5 6.10714V9.5H7.90503C8.42253 8.68843 9.39 8.14286 10.5 8.14286C11.61 8.14286 12.5775 8.68843 13.095 9.5H19.5V6.10714ZM13.5 10.8571C13.5 12.3568 12.1575 13.5714 10.5 13.5714C8.8425 13.5714 7.5 12.3568 7.5 10.8571H1.5V15.6071C1.5 16.7336 2.505 17.6429 3.75 17.6429H17.25C18.495 17.6429 19.5 16.7336 19.5 15.6071V10.8571H13.5ZM9 10.8571C9 10.1073 9.675 9.5 10.5 9.5C11.325 9.5 12 10.1073 12 10.8571C12 11.6036 11.325 12.2143 10.5 12.2143C9.675 12.2143 9 11.6036 9 10.8571Z" fill="white"/>
</svg>
