<svg width="27" height="26" viewBox="0 0 27 26" fill="none" xmlns="http://www.w3.org/2000/svg">
<path d="M5.4375 10.8783C7.5975 14.8277 11.07 18.0583 15.3225 20.0679L18.6225 16.9908C19.035 16.607 19.6275 16.4953 20.145 16.6488C21.825 17.1652 23.6325 17.4443 25.5 17.4443C26.3325 17.4443 27 18.0653 27 18.8399V23.7243C27 24.4988 26.3325 25.1198 25.5 25.1198C11.415 25.1198 0 14.4997 0 1.39554C0 0.621017 0.675 0 1.5 0H6.75C7.5825 0 8.25 0.621017 8.25 1.39554C8.25 3.133 8.55 4.81463 9.105 6.37764C9.27 6.8591 9.15 7.41034 8.7375 7.79412L5.4375 10.8783V10.8783Z" fill="white"/>
</svg>
