<svg width="21" height="19" viewBox="0 0 21 19" fill="none" xmlns="http://www.w3.org/2000/svg">
<path id="Vector" fill-rule="evenodd" clip-rule="evenodd" d="M6 0C6.414 0 6.75 0.305357 6.75 0.678571V1.35714H14.25V0.678571C14.25 0.305357 14.586 0 15 0C15.414 0 15.75 0.305357 15.75 0.678571V1.35714H17.25C19.3207 1.35714 21 2.87714 21 4.75V15.6071C21 17.48 19.3207 19 17.25 19H3.75C1.67925 19 0 17.48 0 15.6071V4.75C0 2.87714 1.67925 1.35714 3.75 1.35714H5.25V0.678571C5.25 0.305357 5.586 0 6 0ZM5.25 2.71429H3.75C2.50725 2.71429 1.5 3.62357 1.5 4.75V6.10714H19.5V4.75C19.5 3.62357 18.4928 2.71429 17.25 2.71429H15.75V3.39286C15.75 3.76607 15.414 4.07143 15 4.07143C14.586 4.07143 14.25 3.76607 14.25 3.39286V2.71429H6.75V3.39286C6.75 3.76607 6.414 4.07143 6 4.07143C5.586 4.07143 5.25 3.76607 5.25 3.39286V2.71429ZM19.5 7.46429H1.5V15.6071C1.5 16.7336 2.50725 17.6429 3.75 17.6429H17.25C18.4928 17.6429 19.5 16.7336 19.5 15.6071V7.46429ZM4.5 10.8571C4.5 10.4839 4.836 10.1786 5.25 10.1786H6.75C7.164 10.1786 7.5 10.4839 7.5 10.8571C7.5 11.2304 7.164 11.5357 6.75 11.5357H5.25C4.836 11.5357 4.5 11.2304 4.5 10.8571ZM9 10.8571C9 10.4839 9.336 10.1786 9.75 10.1786H11.25C11.664 10.1786 12 10.4839 12 10.8571C12 11.2304 11.664 11.5357 11.25 11.5357H9.75C9.336 11.5357 9 11.2304 9 10.8571ZM13.5 10.8571C13.5 10.4839 13.836 10.1786 14.25 10.1786H15.75C16.164 10.1786 16.5 10.4839 16.5 10.8571C16.5 11.2304 16.164 11.5357 15.75 11.5357H14.25C13.836 11.5357 13.5 11.2304 13.5 10.8571ZM4.5 14.25C4.5 13.8768 4.836 13.5714 5.25 13.5714H6.75C7.164 13.5714 7.5 13.8768 7.5 14.25C7.5 14.6232 7.164 14.9286 6.75 14.9286H5.25C4.836 14.9286 4.5 14.6232 4.5 14.25ZM9 14.25C9 13.8768 9.336 13.5714 9.75 13.5714H11.25C11.664 13.5714 12 13.8768 12 14.25C12 14.6232 11.664 14.9286 11.25 14.9286H9.75C9.336 14.9286 9 14.6232 9 14.25ZM13.5 14.25C13.5 13.8768 13.836 13.5714 14.25 13.5714H15.75C16.164 13.5714 16.5 13.8768 16.5 14.25C16.5 14.6232 16.164 14.9286 15.75 14.9286H14.25C13.836 14.9286 13.5 14.6232 13.5 14.25Z" fill="white"/>
</svg>
