<svg width="21" height="24" viewBox="0 0 21 24" fill="none" xmlns="http://www.w3.org/2000/svg">
<path fill-rule="evenodd" clip-rule="evenodd" d="M10.5 0C7.46243 0 5 2.46243 5 5.5C5 8.53757 7.46243 11 10.5 11C13.5376 11 16 8.53757 16 5.5C16 2.46243 13.5376 0 10.5 0ZM6.57143 5.5C6.57143 3.33064 8.33064 1.57143 10.5 1.57143C12.6694 1.57143 14.4286 3.33064 14.4286 5.5C14.4286 7.66936 12.6694 9.42857 10.5 9.42857C8.33064 9.42857 6.57143 7.66936 6.57143 5.5Z" fill="white"/>
<path fill-rule="evenodd" clip-rule="evenodd" d="M3.71872 13C2.65258 13 1.58159 13.6059 1.06467 14.7894C0.641449 15.7574 0.123731 17.1965 0.0106562 18.6852C-0.0725349 19.787 0.331298 20.9218 1.22459 21.5525C2.63884 22.5489 5.55296 24 10.5 24C15.447 24 18.3612 22.5489 19.7754 21.5525C20.6687 20.9218 21.0725 19.787 20.9893 18.6852C20.8763 17.1965 20.3586 15.7574 19.9353 14.7894C19.4184 13.6059 18.3474 13 17.2813 13H3.71872ZM2.51203 15.6034C2.71395 15.1404 3.16546 14.8333 3.71872 14.8333H17.2813C17.8345 14.8333 18.2861 15.1404 18.488 15.6034C18.8757 16.4907 19.2924 17.6887 19.3796 18.8419C19.4184 19.3543 19.2302 19.7778 18.9233 19.9951C17.7707 20.8072 15.153 22.1667 10.5 22.1667C5.84695 22.1667 3.22927 20.8072 2.07671 19.9951C1.7698 19.7778 1.5816 19.3543 1.62037 18.8419C1.7076 17.6887 2.12434 16.4907 2.51203 15.6034Z" fill="white"/>
</svg>
